<svg xmlns="http://www.w3.org/2000/svg" viewBox="0 0 480 300" preserveAspectRatio="xMidYMid slice" role="img" aria-label="风格概念占位图，非上游样片"><rect width="480" height="300" fill="#ECEEE6"/><text x="32" y="44" fill="#22312A" font-size="13" font-family="Inter,Arial">A PATTERN EMERGES.</text><g stroke="#BCC7B7" stroke-width="1"><path d="M40 230h397M40 80v150M40 180h397M40 130h397M40 80h397"/></g><g fill="#AEC1A3"><rect x="67" y="181" width="32" height="49"/><rect x="127" y="151" width="32" height="79"/><rect x="187" y="161" width="32" height="69"/><rect x="247" y="126" width="32" height="104"/><rect x="307" y="103" width="32" height="127"/></g><rect x="367" y="70" width="32" height="160" fill="#A55B39"/><path d="m83 173 60-31 60 10 60-34 60-25 60-31" stroke="#485E40" stroke-width="2" fill="none"/><circle cx="383" cy="62" r="4" fill="#A55B39"/><text x="42" y="260" fill="#697165" font-size="9" font-family="monospace">ILLUSTRATIVE DATA / NOT A REAL DATASET</text></svg>