<svg xmlns="http://www.w3.org/2000/svg" viewBox="0 0 480 300" preserveAspectRatio="xMidYMid slice" role="img" aria-label="风格概念占位图，非上游样片"><rect width="480" height="300" fill="#633D2C"/><rect x="18" y="14" width="444" height="271" fill="#D7AC68"/><circle cx="331" cy="71" r="33" fill="#E8C487"/><path d="M25 268q97-40 178-13t250-11" stroke="#6B4932" stroke-width="4" fill="none"/><g stroke="#613723" stroke-width="11" fill="#824827"><circle cx="203" cy="98" r="20"/><path d="M197 120l-14 64 44 9-11-77ZM189 185l-31 60m61-53 28 53m-52-119 56 14 47-30"/><path d="M291 79q47 61-11 113" fill="none" stroke-width="5"/><path d="m292 79-12 113M223 138l99-10" fill="none" stroke-width="1.7"/></g><path d="m192 78-12-25 34 18 14-8-7 18" fill="#A4472D"/><circle cx="203" cy="96" r="3" fill="#D7AC68"/><path d="M185 121l35 3m-43 37 40 3" stroke="#D7AC68" stroke-width="2"/></svg>